<svg xmlns="http://www.w3.org/2000/svg" viewBox="0 0 410 404"><defs><linearGradient id="a" x1="100.46%" x2="5.44%" y1="13.27%" y2="75.3%"><stop stop-color="#41D1FF" offset="0"/><stop stop-color="#BD34FE" offset="1"/></linearGradient><linearGradient id="b" x1="35.16%" x2="64.84%" y1="12.2%" y2="88.84%"><stop stop-color="#FFEA83" offset="0"/><stop stop-color="#FFDD35" offset="0.08"/><stop stop-color="#FFA800" offset="1"/></linearGradient></defs><path fill="url(#a)" d="M399.641 59.524L215.699 388.545c-5.901 10.748-21.507 10.744-27.402-.008L10.444 59.52c-6.4-11.69 3.563-25.56 16.313-22.733l178.834 39.35a14.999 14.999 0 0 0 6.492-.004l170.261-39.306c12.724-2.937 22.698 10.883 16.344 22.571Z"/><path fill="url(#b)" d="M292.965 1.574 156.789 28.253c-4.913.964-8.934 4.482-10.238 9.292l-31.35 115.513c-1.709 6.299 1.544 12.888 7.612 15.429l35.356 15.297c5.202 2.25 11.226.65 14.66-3.888l80.273-103.003c3.482-4.468 10.544-2.747 11.746 2.754l14.771 67.934c1.281 5.897-2.477 11.754-8.407 12.976l-98.957 20.46c-7.181 1.484-9.967 10.322-4.725 15.65l22.733 22.327c3.873 3.803 9.763 4.5 14.422 1.67l24.108-14.69c4.834-2.948 11.042-1.274 13.798 3.64l40.33 70.97c3.545 6.239 12.717 5.593 15.308-.998l71.739-183.402c2.418-6.185-1.881-12.911-8.522-13.774l-43.44-5.573c-5.947-.763-8.596-7.862-4.379-12.215l32.024-33.115c4.545-4.704 2.007-12.689-4.324-14Z"/></svg>
